#!OML:ASF E:\acrobat2\Project_11_07_03\Capture day 1\Session 1\Acrobat.ASF
:FULLY-SPECIFIED
:DEGREES
77
root 11.0087 28.0323 38.2932 6.62756 2.55769 -1.32188
lowerback 1.11877 2.18126 4.04644
upperback 3.78107 2.90528 -1.06263
thorax 3.53263 1.5965 -3.29889
lowerneck 3.6996 -2.00833 3.50696
upperneck 20.1039 -2.31953 -2.43484
head 5.38052 -0.996369 -1.43141
rclavicle 3.50358e-015 4.27387e-015
rhumerus -39.7733 -11.5589 -77.2424
rradius 30.2144
rwrist 15.7487
rhand 2.89692 -21.6355
rfingers 7.12502
rthumb 28.3621 -49.5072
lclavicle 3.50358e-015 4.27387e-015
lhumerus -25.8419 -7.60965 81.398
lradius 31.0079
lwrist 8.26574
lhand -14.0958 -12.9392
lfingers 7.12502
lthumb 12.0367 16.6947
rfemur -12.7914 0.900435 21.8569
rtibia 18.4467
rfoot -13.4179 -13.9483
rtoes -13.365
lfemur -18.6223 1.10153 -16.5079
ltibia 29.5116
lfoot -6.32977 -13.9699
ltoes 18.5937
78
root 11.0124 28.0426 38.2839 6.64526 2.35052 -1.36265
lowerback 1.12805 2.26322 4.05598
upperback 3.80045 3.01493 -1.07315
thorax 3.55868 1.65256 -3.31184
lowerneck 3.71176 -2.0366 3.57792
upperneck 19.8984 -2.3592 -2.44227
head 5.31197 -1.01305 -1.44417
rclavicle -8.3738e-015 -8.34896e-015
rhumerus -39.7614 -11.7377 -77.2191
rradius 30.1816
rwrist 15.9313
rhand 3.20826 -21.9409
rfingers 7.12502
rthumb 28.6595 -49.7626
lclavicle -8.3738e-015 -8.34896e-015
lhumerus -25.9057 -7.7378 81.6091
lradius 31.0824
lwrist 8.50167
lhand -14.1127 -12.7178
lfingers 7.12502
lthumb 12.0204 16.9171
rfemur -12.6948 1.29476 21.722
rtibia 18.0773
rfoot -13.1456 -14.1584
rtoes -13.4774
lfemur -18.2677 1.45055 -16.6097
ltibia 28.3146
lfoot -6.21503 -13.7755
ltoes 21.3129
79
root 11.0169 28.0499 38.2769 6.66205 2.12149 -1.36004
lowerback 1.10963 2.3568 4.02426
upperback 3.8021 3.13977 -1.0911
thorax 3.58128 1.71463 -3.3081
lowerneck 3.78088 -2.07059 3.61468
upperneck 19.7091 -2.40566 -2.43444
head 5.23962 -1.03408 -1.44608
rclavicle 2.93207e-014 -2.68359e-014
rhumerus -39.7798 -11.8692 -77.1892
rradius 30.1737
rwrist 16.0226
rhand 3.4514 -22.177
rfingers 7.12502
rthumb 28.8918 -49.9593
lclavicle 2.93207e-014 -2.68359e-014
lhumerus -26.0321 -7.89757 81.8516
lradius 31.1574
lwrist 8.69056
lhand -14.0148 -12.348
lfingers 7.12502
lthumb 12.1148 17.2813
rfemur -12.6114 1.64361 21.5145
rtibia 17.7384
rfoot -12.8715 -14.3103
rtoes -13.6034
lfemur -17.7788 1.69541 -16.7771
ltibia 26.9228
lfoot -6.08734 -13.4295
ltoes 24.3542
80
root 11.0227 28.0537 38.2722 6.67781 1.87722 -1.30339
lowerback 1.04604 2.39167 3.89547
upperback 3.80058 3.18606 -1.12635
thorax 3.61395 1.73482 -3.2683
lowerneck 3.86852 -2.05085 3.73305
upperneck 19.5452 -2.36956 -2.49869
head 5.1726 -1.01378 -1.4819
rclavicle 2.37299e-014 -1.70955e-014
rhumerus -39.7224 -11.7581 -77.2854
rradius 30.1552
rwrist 16.0107
rhand 3.63822 -22.3372
rfingers 7.12502
rthumb 29.0702 -50.0888
lclavicle 2.37299e-014 -1.70955e-014
lhumerus -26.2268 -7.90881 82.0065
lradius 31.2438
lwrist 8.81922
lhand -13.8178 -11.8869
lfingers 7.12502
lthumb 12.3047 17.731
rfemur -12.5469 1.90277 21.2191
rtibia 17.4328
rfoot -12.5862 -14.36
rtoes -13.6889
lfemur -17.2018 1.82161 -17.0231
ltibia 25.5044
lfoot -6.20555 -12.8554
ltoes 26.1062
81
root 11.0295 28.0542 38.269 6.69667 1.63314 -1.22678
lowerback 0.948587 2.40206 3.73437
upperback 3.78624 3.19916 -1.16236
thorax 3.64741 1.73716 -3.21099
lowerneck 3.99879 -2.01134 3.87018
upperneck 19.3928 -2.30077 -2.59259
head 5.1027 -0.977808 -1.52888
rclavicle 4.22169e-014 6.75868e-015
rhumerus -39.6343 -11.5397 -77.4156
rradius 30.1299
rwrist 15.9514
rhand 3.76942 -22.4166
rfingers 7.12502
rthumb 29.1955 -50.1465
lclavicle 4.22169e-014 6.75868e-015
lhumerus -26.4748 -7.86968 82.1448
lradius 31.3303
lwrist 8.88706
lhand -13.5715 -11.438
lfingers 7.12502
lthumb 12.5423 18.1656
rfemur -12.5159 2.02411 20.8834
rtibia 17.1729
rfoot -12.2583 -14.2869
rtoes -13.8537
lfemur -16.6152 1.8425 -17.3031
ltibia 24.2334
lfoot -6.70126 -12.047
ltoes 25.5861
82
root 11.0369 28.0518 38.2659 6.72936 1.40848 -1.16173
lowerback 0.829456 2.38954 3.57476
upperback 3.74462 3.1816 -1.20066
thorax 3.66231 1.72346 -3.15761
lowerneck 4.20023 -1.96154 4.06336
upperneck 19.2368 -2.21044 -2.7204
head 5.01986 -0.929167 -1.59451
rclavicle -1.43622e-014 -1.54058e-014
rhumerus -39.5582 -11.3289 -77.5459
rradius 30.1262
rwrist 15.9421
rhand 3.87668 -22.4078
rfingers 7.12502
rthumb 29.298 -50.1199
lclavicle -1.43622e-014 -1.54058e-014
lhumerus -26.7843 -7.81257 82.2598
lradius 31.4157
lwrist 8.89741
lhand -13.339 -11.0787
lfingers 7.12502
lthumb 12.7664 18.511
rfemur -12.5415 2.01358 20.5461
rtibia 16.9557
rfoot -11.8599 -14.134
rtoes -14.1832
lfemur -16.1089 1.77571 -17.5732
ltibia 23.2356
lfoot -7.47985 -11.0499
ltoes 22.7918
83
root 11.0443 28.0474 38.2612 6.77838 1.22505 -1.13989
lowerback 0.722167 2.40676 3.49257
upperback 3.6398 3.20462 -1.26174
thorax 3.61438 1.73082 -3.17188
lowerneck 4.57416 -1.9658 4.36801
upperneck 19.0356 -2.18387 -2.85251
head 4.89198 -0.903379 -1.6794
rclavicle -1.07841e-014 -5.76476e-015
rhumerus -39.6328 -11.2957 -77.6285
rradius 30.2072
rwrist 15.979
rhand 3.95506 -22.3282
rfingers 7.12502
rthumb 29.3728 -50.0272
lclavicle -1.07841e-014 -5.76476e-015
lhumerus -27.1819 -7.94901 82.3987
lradius 31.4929
lwrist 8.89261
lhand -13.1866 -10.8575
lfingers 7.12502
lthumb 12.9134 18.7229
rfemur -12.6356 1.88305 20.2553
rtibia 16.8119
rfoot -11.4355 -13.9097
rtoes -14.559
lfemur -15.742 1.65987 -17.7868
ltibia 22.552
lfoot -8.27016 -10.001
ltoes 18.8292
84
root 11.0505 28.0422 38.2535 6.83726 1.10381 -1.20671
lowerback 0.652565 2.45039 3.52875
upperback 3.47854 3.26341 -1.33666
thorax 3.49777 1.75788 -3.26863
lowerneck 5.07139 -2.02664 4.79244
upperneck 18.8159 -2.22379 -2.98559
head 4.73541 -0.901286 -1.78442
rclavicle -3.77691e-015 1.43125e-014
rhumerus -39.8573 -11.4962 -77.6542
rradius 30.3815
rwrist 16.0826
rhand 3.99671 -22.1851
rfingers 7.12502
rthumb 29.4126 -49.8771
lclavicle -3.77691e-015 1.43125e-014
lhumerus -27.6377 -8.33304 82.565
lradius 31.5384
lwrist 8.95021
lhand -13.1359 -10.7796
lfingers 7.12502
lthumb 12.9622 18.7978
rfemur -12.7929 1.67287 20.078
rtibia 16.7571
rfoot -11.045 -13.6405
rtoes -14.8948
lfemur -15.5329 1.53203 -17.8764
ltibia 22.1394
lfoot -8.85138 -9.069
ltoes 15.1308
85
root 11.0549 28.0373 38.2427 6.88777 1.05385 -1.35492
lowerback 0.610009 2.39062 3.57963
upperback 3.33123 3.18207 -1.3205
thorax 3.36369 1.71351 -3.28494
lowerneck 5.50653 -1.9965 5.01941
upperneck 18.6396 -2.14365 -3.1126
head 4.60946 -0.853702 -1.85326
rclavicle -9.34288e-015 -1.72943e-014
rhumerus -40.0078 -11.4855 -77.6837
rradius 30.6215
rwrist 16.1742
rhand 3.99123 -22.0136
rfingers 7.12502
rthumb 29.4073 -49.7066
lclavicle -9.34288e-015 -1.72943e-014
lhumerus -28.0925 -8.48195 82.7551
lradius 31.5205
lwrist 9.02739
lhand -13.1397 -10.7889
lfingers 7.12502
lthumb 12.9586 18.7887
rfemur -12.9849 1.39756 20.0159
rtibia 16.8018
rfoot -10.7407 -13.3234
rtoes -15.1635
lfemur -15.4496 1.41584 -17.8427
ltibia 21.9072
lfoot -9.13503 -8.37943
ltoes 12.8544
